<svg width="57" height="114" viewBox="0 0 57 114" fill="none" xmlns="http://www.w3.org/2000/svg">
<path d="M5.00529e-07 114C15.1173 114 29.6155 107.995 40.3051 97.3051C50.9947 86.6155 57 72.1173 57 57C57 41.8827 50.9947 27.3845 40.3051 16.6949C29.6155 6.00534 15.1174 4.51906e-07 1.3969e-05 -2.49155e-06L8.15195e-06 36.0172C5.565 36.0172 10.9021 38.2278 14.8371 42.1629C18.7722 46.0979 20.9828 51.435 20.9828 57C20.9828 62.565 18.7722 67.9021 14.8371 71.8371C10.9021 75.7722 5.565 77.9828 2.07489e-06 77.9828L5.00529e-07 114Z" fill="black"/>
</svg>
